<?xml version="1.0" encoding="UTF-8"?>
<svg xmlns="http://www.w3.org/2000/svg" viewBox="0 0 180 252">
  <defs>
    <style>
      .cls-1 {
        fill: #520010;
      }

      .cls-2 {
        fill: #6f0020;
      }

      .cls-3 {
        fill: #fff;
        font-family: Arial, Helvetica, sans-serif;
        font-size: 78px;
        font-weight: 700;
      }
    </style>
  </defs>
  <g id="Layer_1">
    <rect class="cls-2" width="180" height="252" rx="18" ry="18"/>
    <path class="cls-1" d="M152.78,143.96c7,0,13.28,2.59,18.86,7.78,5.57,5.18,8.36,13.2,8.36,24.05,0,12.06-3.44,22.56-10.32,31.51-6.88,8.95-14.29,17.07-22.24,24.36-3.97,3.68-7.81,7.19-11.52,10.53-3.71,3.35-6.89,6.62-9.56,9.81h-.8c-2.67-3.19-5.84-6.46-9.52-9.81-3.68-3.35-7.5-6.86-11.48-10.53-7.95-7.29-15.36-15.41-22.24-24.36-6.88-8.95-10.32-19.45-10.32-31.51,0-10.73,2.77-18.71,8.32-23.96,5.55-5.24,11.85-7.87,18.9-7.87s12.17,1.69,16.41,5.06c4.24,3.38,7.55,7.11,9.92,11.21h.8c2.37-4.04,5.65-7.76,9.83-11.17,4.18-3.4,9.71-5.11,16.59-5.11Z"/>
  </g>
  <g id="_x3C_Layer_x3E_">
    <text class="cls-3" transform="translate(14.42 72)"><tspan x="0" y="0">A</tspan></text>
  </g>
</svg>