<?xml version="1.0" encoding="UTF-8"?>
<svg xmlns="http://www.w3.org/2000/svg" viewBox="0 0 180 252">
  <defs>
    <style>
      .cls-1 {
        fill: #005020;
      }

      .cls-2 {
        fill: #00300d;
      }

      .cls-3 {
        fill: #fff;
        font-family: Arial, Helvetica, sans-serif;
        font-size: 78px;
        font-weight: 700;
      }
    </style>
  </defs>
  <g id="Layer_1">
    <rect class="cls-1" width="180" height="252" rx="18" ry="18"/>
    <path class="cls-2" d="M106.65,252v-5.65c3.33-2.31,6.39-5.79,9.18-10.43,2.79-4.64,4.19-10.38,4.19-17.21-2.26,1.31-4.55,2.33-6.86,3.09-2.32.75-5.32,1.13-9,1.13-7.73,0-14.32-2.12-19.79-6.36-5.47-4.24-8.2-9.98-8.2-17.21,0-6.43,2.55-11.95,7.67-16.57,5.11-4.62,11.83-6.98,20.15-7.08-.48-1.31-.83-2.64-1.07-3.99-.24-1.36-.36-2.71-.36-4.07,0-6.38,2.53-11.91,7.58-16.61,5.05-4.69,11.77-7.04,20.15-7.04s15.1,2.35,20.15,7.04c5.05,4.7,7.58,10.23,7.58,16.61,0,1.36-.12,2.71-.36,4.07-.24,1.36-.59,2.69-1.07,3.99,8.2.1,14.89,2.44,20.06,7,5.17,4.57,7.76,10.12,7.76,16.64,0,7.33-2.76,13.09-8.29,17.28-5.53,4.19-12.09,6.29-19.7,6.29-3.69,0-6.69-.38-9-1.13-2.32-.75-4.61-1.78-6.86-3.09,0,6.83,1.37,12.57,4.1,17.21,2.73,4.64,5.82,8.12,9.27,10.43v5.65h-47.25Z"/>
  </g>
  <g id="_x3C_Layer_x3E_">
    <text class="cls-3" transform="translate(17.3 72)"><tspan x="0" y="0">9</tspan></text>
  </g>
</svg>