<?xml version="1.0" encoding="UTF-8"?>
<svg xmlns="http://www.w3.org/2000/svg" viewBox="0 0 180 252">
  <defs>
    <style>
      .cls-1 {
        fill: #141011;
      }

      .cls-2 {
        fill: #231f20;
      }

      .cls-3 {
        fill: #fff;
        font-family: Univers-Condensed-Bold, 'Univers Condensed';
        font-size: 78px;
        font-weight: 700;
      }
    </style>
  </defs>
  <g id="Layer_1">
    <rect class="cls-2" width="180" height="252" rx="18" ry="18"/>
    <path class="cls-1" d="M126.36,108c2.61,3.42,5.74,6.9,9.39,10.42,3.65,3.52,7.46,7.23,11.43,11.11,7.95,7.77,15.4,16.41,22.37,25.93,6.97,9.52,10.45,20.53,10.45,33.04,0,10.93-2.82,19.21-8.45,24.84-5.64,5.63-11.8,8.44-18.5,8.44-3.26,0-6.36-.46-9.3-1.38-2.94-.92-5.56-2.44-7.87-4.54.47,4.48,1.78,9.37,3.91,14.67,2.14,5.3,5.4,9.99,9.79,14.07v7.41h-47.15v-7.41c4.39-4.08,7.65-8.77,9.79-14.07,2.14-5.3,3.44-10.19,3.91-14.67-2.31,2.11-4.94,3.62-7.87,4.54-2.94.92-6.04,1.38-9.3,1.38-6.76,0-12.94-2.85-18.55-8.54-5.6-5.69-8.41-13.94-8.41-24.74,0-12.44,3.47-23.42,10.41-32.94,6.94-9.51,14.41-18.19,22.42-26.02,3.97-3.88,7.78-7.6,11.43-11.16s6.77-7.01,9.39-10.37h.71Z"/>
  </g>
  <g id="_x3C_Layer_x3E_">
    <text class="cls-3" transform="translate(17.3 72)"><tspan x="0" y="0">J</tspan></text>
  </g>
</svg>