<?xml version="1.0" encoding="UTF-8"?>
<svg xmlns="http://www.w3.org/2000/svg" viewBox="0 0 180 252">
  <defs>
    <style>
      .cls-1 {
        fill: #520010;
      }

      .cls-2 {
        fill: #6f0020;
      }

      .cls-3 {
        fill: #fff;
        font-family: Univers-Condensed-Bold, 'Univers Condensed';
        font-size: 78px;
        font-weight: 700;
      }
    </style>
  </defs>
  <g id="Layer_1">
    <rect class="cls-2" width="180" height="252" rx="18" ry="18"/>
    <path class="cls-1" d="M152.78,145.69c7,0,13.28,2.55,18.86,7.65,5.57,5.1,8.36,12.99,8.36,23.66,0,11.86-3.44,22.2-10.32,31-6.88,8.81-14.29,16.8-22.24,23.98-3.97,3.62-7.81,7.07-11.52,10.36-3.71,3.29-6.89,6.51-9.56,9.65h-.8c-2.67-3.14-5.84-6.36-9.52-9.65-3.68-3.29-7.5-6.75-11.48-10.36-7.95-7.18-15.36-15.17-22.24-23.98-6.88-8.81-10.32-19.14-10.32-31,0-10.56,2.77-18.42,8.32-23.57,5.55-5.16,11.85-7.74,18.9-7.74s12.17,1.66,16.41,4.98c4.24,3.32,7.55,7,9.92,11.03h.8c2.37-3.97,5.65-7.64,9.83-10.99,4.18-3.35,9.71-5.03,16.59-5.03Z"/>
  </g>
  <g id="_x3C_Layer_x3E_">
    <text class="cls-3" transform="translate(-1.4 72)"><tspan x="0" y="0">10</tspan></text>
  </g>
</svg>