<svg xmlns="http://www.w3.org/2000/svg" version="1.1" viewBox="-5.0 -10.0 110.0 135.0">
 <path d="m25.129 72.754h-2.9102c-0.86328 0-1.5625 0.69922-1.5625 1.5625v8.1562h-3.9922c-0.86719 0-1.5625 0.69922-1.5625 1.5625v9.7148c0 0.86328 0.69531 1.5625 1.5625 1.5625h66.668c0.86719 0 1.5625-0.69922 1.5625-1.5625v-9.7148c0-0.86328-0.69531-1.5625-1.5625-1.5625h-3.9922v-8.1562c0-0.86328-0.69922-1.5625-1.5625-1.5625h-2.9102c8.4023-7.0508 13.73-17.637 13.73-29.461 0-21.305-17.297-38.602-38.602-38.602-21.305 0-38.602 17.297-38.602 38.602 0 11.824 5.3281 22.414 13.73 29.461zm56.645 12.844v6.5898h-63.543v-6.5898zm-5.5547-9.7188v6.5938h-52.438v-6.5938zm-45.879-3.125c-9.5469-6.3203-15.82-17.164-15.82-29.461 0-19.582 15.898-35.477 35.477-35.477 19.582 0 35.477 15.898 35.477 35.477 0 12.297-6.2734 23.145-15.82 29.461h-39.316-0.003907zm46.328-38.234c0.91016 2.7578 1.3984 5.7109 1.3984 8.7734 0 0.86328 0.69922 1.5625 1.5625 1.5625 0.86328 0 1.5625-0.69922 1.5625-1.5625 0-3.4023-0.54688-6.6797-1.5547-9.75-0.26953-0.82031-1.1523-1.2656-1.9727-0.99219-0.82031 0.26953-1.2656 1.1523-0.99609 1.9727zm-26.668-19.297c9.6406 0 18.148 4.8672 23.207 12.281 0.48438 0.71094 1.4609 0.89844 2.1719 0.41016 0.71094-0.48437 0.89844-1.4609 0.41016-2.1719-5.6172-8.2344-15.074-13.645-25.789-13.645-0.86328 0-1.5625 0.69922-1.5625 1.5625 0 0.85938 0.69922 1.5625 1.5625 1.5625z" fill-rule="evenodd"/>
<text x="0.0" y="117.5" font-size="5.0" font-weight="bold" font-family="Arbeit Regular, Helvetica, Arial-Unicode, Arial, Sans-serif" fill="#000000">Created by Firza Alamsyah</text><text x="0.0" y="122.5" font-size="5.0" font-weight="bold" font-family="Arbeit Regular, Helvetica, Arial-Unicode, Arial, Sans-serif" fill="#000000">from Noun Project</text></svg>