<?xml version="1.0" encoding="utf-8"?>
<!-- Generator: Adobe Illustrator 27.9.0, SVG Export Plug-In . SVG Version: 6.00 Build 0)  -->
<svg version="1.1" id="Layer_1" xmlns="http://www.w3.org/2000/svg" xmlns:xlink="http://www.w3.org/1999/xlink" x="0px" y="0px"
	 viewBox="0 0 1024 1024" style="enable-background:new 0 0 1024 1024;" xml:space="preserve">
<style type="text/css">
	.st0{fill:#231F20;}
	.st1{fill-rule:evenodd;clip-rule:evenodd;fill:#A481BA;}
	.st2{fill:#A481BA;}
	.st3{font-family:'Baskerville-Italic';}
	.st4{font-size:401.2383px;}
	.st5{letter-spacing:-20;}
</style>
<rect y="0" class="st0" width="1024" height="1024"/>
<g>
	<path class="st1" d="M304.1,702.2h-24.3c-7.2,0-13.1,5.8-13.1,13.1v68.2h-33.4c-7.2,0-13.1,5.8-13.1,13.1v81.2
		c0,7.2,5.8,13.1,13.1,13.1h557.3c7.2,0,13.1-5.8,13.1-13.1v-81.2c0-7.2-5.8-13.1-13.1-13.1h-33.4v-68.2c0-7.2-5.8-13.1-13.1-13.1
		h-24.3c70.2-58.9,114.8-147.4,114.8-246.3c0-178.1-144.6-322.7-322.7-322.7S189.3,277.8,189.3,455.9
		C189.3,554.8,233.9,643.3,304.1,702.2L304.1,702.2z M777.6,809.6v55.1H246.5v-55.1H777.6z M731.2,728.3v55.1H292.9v-55.1H731.2z
		 M347.7,702.2c-79.8-52.8-132.2-143.5-132.2-246.3c0-163.7,132.9-296.6,296.6-296.6c163.7,0,296.6,132.9,296.6,296.6
		c0,102.8-52.4,193.5-132.2,246.3H347.7L347.7,702.2L347.7,702.2z M735,382.6c7.6,23.1,11.7,47.7,11.7,73.3
		c0,7.2,5.8,13.1,13.1,13.1c7.2,0,13.1-5.8,13.1-13.1c0-28.4-4.6-55.8-13-81.5c-2.3-6.9-9.6-10.6-16.5-8.3
		C736.4,368.4,732.7,375.8,735,382.6L735,382.6z M512,221.3c80.6,0,151.7,40.7,194,102.7c4,5.9,12.2,7.5,18.2,3.4
		c5.9-4,7.5-12.2,3.4-18.2c-47-68.8-126-114.1-215.6-114.1c-7.2,0-13.1,5.8-13.1,13.1C499,215.4,504.8,221.3,512,221.3L512,221.3z"
		/>
	<text transform="matrix(1 0 0 1 461.9063 546.1769)" class="st2 st3 st4 st5">f</text>
</g>
</svg>
